<?xml version="1.0" encoding="utf-8"?>
<!-- Generator: Adobe Illustrator 22.0.1, SVG Export Plug-In . SVG Version: 6.00 Build 0)  -->
<svg version="1.1" id="Ebene_1" xmlns="http://www.w3.org/2000/svg" xmlns:xlink="http://www.w3.org/1999/xlink" x="0px" y="0px"
	 viewBox="0 0 62.3 43.1" enable-background="new 0 0 62.3 43.1" xml:space="preserve">
<g>
	<polygon fill="#44484B" points="29.6,40.1 4.5,40.1 4.5,3.1 7.5,3.1 7.5,37 29.6,37 	"/>
	<polygon fill="#44484B" points="58.1,40.1 31.5,40.1 31.5,23.1 47.3,23.1 47.3,26.1 34.5,26.1 34.5,37.1 55.1,37.1 55.1,6.1 
		33,6.1 33,3.1 58.1,3.1 	"/>
	<g>
		<linearGradient id="SVGID_1_" gradientUnits="userSpaceOnUse" x1="25.1895" y1="33.3934" x2="11.5708" y2="19.7746">
			<stop  offset="0" style="stop-color:#242322"/>
			<stop  offset="0.3072" style="stop-color:#464848"/>
			<stop  offset="0.7722" style="stop-color:#747C7C"/>
			<stop  offset="1" style="stop-color:#869090"/>
		</linearGradient>
		<polygon fill="url(#SVGID_1_)" points="10,21.4 10,24 11.8,24 11.8,32.7 16.8,32.7 16.8,25.2 18.6,25.2 18.6,32.7 25.9,32.7 
			25.9,21.4 		"/>
		<linearGradient id="SVGID_2_" gradientUnits="userSpaceOnUse" x1="24.2541" y1="16.4062" x2="11.6998" y2="3.8519">
			<stop  offset="0" style="stop-color:#242322"/>
			<stop  offset="0.3072" style="stop-color:#464848"/>
			<stop  offset="0.7722" style="stop-color:#747C7C"/>
			<stop  offset="1" style="stop-color:#869090"/>
		</linearGradient>
		<path fill="url(#SVGID_2_)" d="M10.4,12.5c0.3-0.7,0.8-1.3,1.5-1.7s1.4-0.6,2.1-0.6c0.7,0,1.3,0.2,1.9,0.6
			c0.6,0.4,1.1,0.9,1.5,1.7c0.3-1,0.8-1.7,1.4-2.2c0.7-0.5,1.5-0.8,2.4-0.8c0.7,0,1.4,0.2,2.1,0.5c0.6,0.3,1.1,0.7,1.5,1.2
			c0.3,0.5,0.6,1,0.8,1.7c0.1,0.6,0.2,1.3,0.3,2.1V5.6H10v8.9C10,13.7,10.2,13,10.4,12.5z"/>
		<linearGradient id="SVGID_3_" gradientUnits="userSpaceOnUse" x1="16.8602" y1="19.0505" x2="11.5842" y2="13.7745">
			<stop  offset="0" style="stop-color:#242322"/>
			<stop  offset="0.3072" style="stop-color:#464848"/>
			<stop  offset="0.7722" style="stop-color:#747C7C"/>
			<stop  offset="1" style="stop-color:#869090"/>
		</linearGradient>
		<path fill="url(#SVGID_3_)" d="M16.4,13.8c-0.2-0.5-0.4-0.9-0.8-1.2c-0.4-0.3-0.8-0.4-1.4-0.4c-0.5,0-1,0.1-1.4,0.4
			c-0.4,0.3-0.7,0.6-0.8,1.1c-0.1,0.5-0.2,1.3-0.2,2.4v3.2h4.8v-3.5C16.6,14.9,16.6,14.2,16.4,13.8z"/>
		<linearGradient id="SVGID_4_" gradientUnits="userSpaceOnUse" x1="24.1827" y1="19.1005" x2="18.3593" y2="13.277">
			<stop  offset="0" style="stop-color:#242322"/>
			<stop  offset="0.3072" style="stop-color:#464848"/>
			<stop  offset="0.7722" style="stop-color:#747C7C"/>
			<stop  offset="1" style="stop-color:#869090"/>
		</linearGradient>
		<path fill="url(#SVGID_4_)" d="M23.9,13.9c-0.1-0.5-0.2-0.9-0.4-1.2c-0.2-0.3-0.5-0.6-0.9-0.8c-0.4-0.2-0.8-0.3-1.3-0.3
			c-0.6,0-1.1,0.2-1.6,0.5c-0.4,0.3-0.7,0.7-0.9,1.3c-0.2,0.5-0.3,1.3-0.3,2.3v3.7H24v-4C24,14.6,24,14.1,23.9,13.9z"/>
	</g>
	<g>
		<path fill="#E9EAEB" d="M25.9,34.8l-16,0V24h1.9v8.7h4.9v-7.5h1.9v7.5l7.3,0V34.8z"/>
		<path fill="#E9EAEB" d="M25.9,21.4l-16,0v-6c0-1.2,0.2-2.2,0.5-2.9c0.3-0.7,0.8-1.3,1.5-1.7s1.4-0.6,2.1-0.6
			c0.7,0,1.3,0.2,1.9,0.6c0.6,0.4,1.1,0.9,1.5,1.7c0.3-1,0.8-1.7,1.4-2.2c0.7-0.5,1.5-0.8,2.4-0.8c0.7,0,1.4,0.2,2.1,0.5
			c0.6,0.3,1.1,0.7,1.5,1.2c0.3,0.5,0.6,1,0.8,1.7c0.2,0.7,0.3,1.6,0.3,2.6V21.4z M16.6,19.3v-3.5c0-0.9-0.1-1.6-0.2-2
			c-0.2-0.5-0.4-0.9-0.8-1.2c-0.4-0.3-0.8-0.4-1.4-0.4c-0.5,0-1,0.1-1.4,0.4c-0.4,0.3-0.7,0.6-0.8,1.1c-0.1,0.5-0.2,1.3-0.2,2.4v3.2
			H16.6z M24,19.3v-4c0-0.7,0-1.2-0.1-1.4c-0.1-0.5-0.2-0.9-0.4-1.2c-0.2-0.3-0.5-0.6-0.9-0.8c-0.4-0.2-0.8-0.3-1.3-0.3
			c-0.6,0-1.1,0.2-1.6,0.5c-0.4,0.3-0.7,0.7-0.9,1.3c-0.2,0.5-0.3,1.3-0.3,2.3v3.7H24z"/>
	</g>
</g>
</svg>
